<?xml version="1.0" encoding="UTF-8"?>
<svg width="381px" height="409px" viewBox="0 0 381 409" version="1.1" xmlns="http://www.w3.org/2000/svg" xmlns:xlink="http://www.w3.org/1999/xlink">
    <!-- Generator: Sketch 51.3 (57544) - http://www.bohemiancoding.com/sketch -->
    <title>Group 2</title>
    <desc>Created with Sketch.</desc>
    <defs></defs>
    <g id="webSite" stroke="none" stroke-width="1" fill="none" fill-rule="evenodd" opacity="0.2">
        <g id="tensus" transform="translate(0.000000, -161.000000)" fill="#000000" fill-rule="nonzero">
            <g id="Group-2" transform="translate(-783.000000, 0.000000)">
                <g transform="translate(0.000000, 161.000000)">
                    <g id="Group-Copy" transform="translate(681.000000, 221.000000)">
                        <path d="M89.82,57.5257143 C88.6829985,57.5256343 87.5921987,57.0757564 86.7857143,56.2742857 L62.5371429,32.0342857 C61.7314286,31.2285714 61.2857143,30.14 61.2857143,29 C61.2857143,27.86 61.74,26.7714286 62.5371429,25.9657143 L86.7857143,1.72571429 C88.4571429,0.0542857143 91.1742857,0.0542857143 92.8457143,1.72571429 L117.094286,25.9657143 C117.9,26.7714286 118.345714,27.86 118.345714,29 C118.345714,30.14 117.891429,31.2285714 117.094286,32.0342857 L92.8457143,56.2742857 C92.0142857,57.1057143 90.9171429,57.5257143 89.82,57.5257143 Z M71.6314286,29 L89.82,47.18 L108.017143,29 L89.82,10.82 L71.6314286,29 Z" id="Shape"></path>
                        <path d="M16.9628571,24.7142857 L68.3914286,24.7142857 L68.3914286,33.2857143 L16.9628571,33.2857143 L16.9628571,24.7142857 Z M111.248571,24.7142857 L162.677143,24.7142857 L162.677143,33.2857143 L111.248571,33.2857143 L111.248571,24.7142857 Z" id="Shape"></path>
                        <path d="M167.142857,41.8571429 C160.054286,41.8571429 154.285714,36.0885714 154.285714,29 C154.285714,21.9114286 160.054286,16.1428571 167.142857,16.1428571 C174.231429,16.1428571 180,21.9114286 180,29 C180,36.0885714 174.231429,41.8571429 167.142857,41.8571429 Z M167.142857,24.7142857 C164.785714,24.7142857 162.857143,26.6428571 162.857143,29 C162.857143,31.3571429 164.785714,33.2857143 167.142857,33.2857143 C169.5,33.2857143 171.428571,31.3571429 171.428571,29 C171.428571,26.6428571 169.5,24.7142857 167.142857,24.7142857 Z M12.8571429,41.8571429 C5.76857143,41.8571429 0,36.0885714 0,29 C0,21.9114286 5.76857143,16.1428571 12.8571429,16.1428571 C19.9457143,16.1428571 25.7142857,21.9114286 25.7142857,29 C25.7142857,36.0885714 19.9457143,41.8571429 12.8571429,41.8571429 Z M12.8571429,24.7142857 C10.4914286,24.7142857 8.57142857,26.6428571 8.57142857,29 C8.57142857,31.3571429 10.4914286,33.2857143 12.8571429,33.2857143 C15.2228571,33.2857143 17.1428571,31.3571429 17.1428571,29 C17.1428571,26.6428571 15.2228571,24.7142857 12.8571429,24.7142857 Z" id="Shape"></path>
                    </g>
                    <g id="Group-Copy-5" transform="translate(938.000000, 351.000000)">
                        <path d="M89.82,57.5257143 C88.6829985,57.5256343 87.5921987,57.0757564 86.7857143,56.2742857 L62.5371429,32.0342857 C61.7314286,31.2285714 61.2857143,30.14 61.2857143,29 C61.2857143,27.86 61.74,26.7714286 62.5371429,25.9657143 L86.7857143,1.72571429 C88.4571429,0.0542857143 91.1742857,0.0542857143 92.8457143,1.72571429 L117.094286,25.9657143 C117.9,26.7714286 118.345714,27.86 118.345714,29 C118.345714,30.14 117.891429,31.2285714 117.094286,32.0342857 L92.8457143,56.2742857 C92.0142857,57.1057143 90.9171429,57.5257143 89.82,57.5257143 Z M71.6314286,29 L89.82,47.18 L108.017143,29 L89.82,10.82 L71.6314286,29 Z" id="Shape"></path>
                        <path d="M16.9628571,24.7142857 L68.3914286,24.7142857 L68.3914286,33.2857143 L16.9628571,33.2857143 L16.9628571,24.7142857 Z M111.248571,24.7142857 L162.677143,24.7142857 L162.677143,33.2857143 L111.248571,33.2857143 L111.248571,24.7142857 Z" id="Shape"></path>
                        <path d="M167.142857,41.8571429 C160.054286,41.8571429 154.285714,36.0885714 154.285714,29 C154.285714,21.9114286 160.054286,16.1428571 167.142857,16.1428571 C174.231429,16.1428571 180,21.9114286 180,29 C180,36.0885714 174.231429,41.8571429 167.142857,41.8571429 Z M167.142857,24.7142857 C164.785714,24.7142857 162.857143,26.6428571 162.857143,29 C162.857143,31.3571429 164.785714,33.2857143 167.142857,33.2857143 C169.5,33.2857143 171.428571,31.3571429 171.428571,29 C171.428571,26.6428571 169.5,24.7142857 167.142857,24.7142857 Z M12.8571429,41.8571429 C5.76857143,41.8571429 0,36.0885714 0,29 C0,21.9114286 5.76857143,16.1428571 12.8571429,16.1428571 C19.9457143,16.1428571 25.7142857,21.9114286 25.7142857,29 C25.7142857,36.0885714 19.9457143,41.8571429 12.8571429,41.8571429 Z M12.8571429,24.7142857 C10.4914286,24.7142857 8.57142857,26.6428571 8.57142857,29 C8.57142857,31.3571429 10.4914286,33.2857143 12.8571429,33.2857143 C15.2228571,33.2857143 17.1428571,31.3571429 17.1428571,29 C17.1428571,26.6428571 15.2228571,24.7142857 12.8571429,24.7142857 Z" id="Shape"></path>
                    </g>
                    <g id="Group-Copy-3" transform="translate(984.000000, 130.000000)">
                        <path d="M89.82,57.5257143 C88.6829985,57.5256343 87.5921987,57.0757564 86.7857143,56.2742857 L62.5371429,32.0342857 C61.7314286,31.2285714 61.2857143,30.14 61.2857143,29 C61.2857143,27.86 61.74,26.7714286 62.5371429,25.9657143 L86.7857143,1.72571429 C88.4571429,0.0542857143 91.1742857,0.0542857143 92.8457143,1.72571429 L117.094286,25.9657143 C117.9,26.7714286 118.345714,27.86 118.345714,29 C118.345714,30.14 117.891429,31.2285714 117.094286,32.0342857 L92.8457143,56.2742857 C92.0142857,57.1057143 90.9171429,57.5257143 89.82,57.5257143 Z M71.6314286,29 L89.82,47.18 L108.017143,29 L89.82,10.82 L71.6314286,29 Z" id="Shape"></path>
                        <path d="M16.9628571,24.7142857 L68.3914286,24.7142857 L68.3914286,33.2857143 L16.9628571,33.2857143 L16.9628571,24.7142857 Z M111.248571,24.7142857 L162.677143,24.7142857 L162.677143,33.2857143 L111.248571,33.2857143 L111.248571,24.7142857 Z" id="Shape"></path>
                        <path d="M167.142857,41.8571429 C160.054286,41.8571429 154.285714,36.0885714 154.285714,29 C154.285714,21.9114286 160.054286,16.1428571 167.142857,16.1428571 C174.231429,16.1428571 180,21.9114286 180,29 C180,36.0885714 174.231429,41.8571429 167.142857,41.8571429 Z M167.142857,24.7142857 C164.785714,24.7142857 162.857143,26.6428571 162.857143,29 C162.857143,31.3571429 164.785714,33.2857143 167.142857,33.2857143 C169.5,33.2857143 171.428571,31.3571429 171.428571,29 C171.428571,26.6428571 169.5,24.7142857 167.142857,24.7142857 Z M12.8571429,41.8571429 C5.76857143,41.8571429 0,36.0885714 0,29 C0,21.9114286 5.76857143,16.1428571 12.8571429,16.1428571 C19.9457143,16.1428571 25.7142857,21.9114286 25.7142857,29 C25.7142857,36.0885714 19.9457143,41.8571429 12.8571429,41.8571429 Z M12.8571429,24.7142857 C10.4914286,24.7142857 8.57142857,26.6428571 8.57142857,29 C8.57142857,31.3571429 10.4914286,33.2857143 12.8571429,33.2857143 C15.2228571,33.2857143 17.1428571,31.3571429 17.1428571,29 C17.1428571,26.6428571 15.2228571,24.7142857 12.8571429,24.7142857 Z" id="Shape"></path>
                    </g>
                    <g id="Group-Copy-4" transform="translate(854.000000, 0.000000)">
                        <path d="M89.82,57.5257143 C88.6829985,57.5256343 87.5921987,57.0757564 86.7857143,56.2742857 L62.5371429,32.0342857 C61.7314286,31.2285714 61.2857143,30.14 61.2857143,29 C61.2857143,27.86 61.74,26.7714286 62.5371429,25.9657143 L86.7857143,1.72571429 C88.4571429,0.0542857143 91.1742857,0.0542857143 92.8457143,1.72571429 L117.094286,25.9657143 C117.9,26.7714286 118.345714,27.86 118.345714,29 C118.345714,30.14 117.891429,31.2285714 117.094286,32.0342857 L92.8457143,56.2742857 C92.0142857,57.1057143 90.9171429,57.5257143 89.82,57.5257143 Z M71.6314286,29 L89.82,47.18 L108.017143,29 L89.82,10.82 L71.6314286,29 Z" id="Shape"></path>
                        <path d="M16.9628571,24.7142857 L68.3914286,24.7142857 L68.3914286,33.2857143 L16.9628571,33.2857143 L16.9628571,24.7142857 Z M111.248571,24.7142857 L162.677143,24.7142857 L162.677143,33.2857143 L111.248571,33.2857143 L111.248571,24.7142857 Z" id="Shape"></path>
                        <path d="M167.142857,41.8571429 C160.054286,41.8571429 154.285714,36.0885714 154.285714,29 C154.285714,21.9114286 160.054286,16.1428571 167.142857,16.1428571 C174.231429,16.1428571 180,21.9114286 180,29 C180,36.0885714 174.231429,41.8571429 167.142857,41.8571429 Z M167.142857,24.7142857 C164.785714,24.7142857 162.857143,26.6428571 162.857143,29 C162.857143,31.3571429 164.785714,33.2857143 167.142857,33.2857143 C169.5,33.2857143 171.428571,31.3571429 171.428571,29 C171.428571,26.6428571 169.5,24.7142857 167.142857,24.7142857 Z M12.8571429,41.8571429 C5.76857143,41.8571429 0,36.0885714 0,29 C0,21.9114286 5.76857143,16.1428571 12.8571429,16.1428571 C19.9457143,16.1428571 25.7142857,21.9114286 25.7142857,29 C25.7142857,36.0885714 19.9457143,41.8571429 12.8571429,41.8571429 Z M12.8571429,24.7142857 C10.4914286,24.7142857 8.57142857,26.6428571 8.57142857,29 C8.57142857,31.3571429 10.4914286,33.2857143 12.8571429,33.2857143 C15.2228571,33.2857143 17.1428571,31.3571429 17.1428571,29 C17.1428571,26.6428571 15.2228571,24.7142857 12.8571429,24.7142857 Z" id="Shape"></path>
                    </g>
                </g>
            </g>
        </g>
    </g>
</svg>